<svg width="24" height="24" viewBox="0 0 24 24" fill="none" xmlns="http://www.w3.org/2000/svg">
<mask id="path-1-inside-1_94_683" fill="white">
<path d="M11.5015 22.9999C12.5907 22.9999 13.4718 22.1306 13.4718 21.0562H9.53125C9.53125 22.1306 10.4124 22.9999 11.5015 22.9999Z"/>
</mask>
<path d="M13.4718 21.0562H15.4718V19.0562H13.4718V21.0562ZM9.53125 21.0562V19.0562H7.53125V21.0562H9.53125ZM11.5015 24.9999C13.6695 24.9999 15.4718 23.2607 15.4718 21.0562H11.4718C11.4718 21.0489 11.4738 21.0371 11.4787 21.0256C11.483 21.0155 11.4878 21.0098 11.4905 21.0071C11.4933 21.0044 11.4961 21.0026 11.4993 21.0012C11.5038 20.9994 11.5058 20.9999 11.5015 20.9999V24.9999ZM13.4718 19.0562H9.53125V23.0562H13.4718V19.0562ZM7.53125 21.0562C7.53125 23.2607 9.33356 24.9999 11.5015 24.9999V20.9999C11.4973 20.9999 11.4993 20.9994 11.5038 21.0012C11.507 21.0026 11.5098 21.0044 11.5126 21.0071C11.5153 21.0098 11.5201 21.0155 11.5244 21.0256C11.5293 21.0371 11.5312 21.0489 11.5312 21.0562H7.53125Z" fill="white" mask="url(#path-1-inside-1_94_683)"/>
<path d="M17.4322 17.1395V17.5577L17.7299 17.8514L18.9649 19.0698H4.03806L5.27306 17.8514L5.57077 17.5577V17.1395V11.2791C5.57077 8.49755 7.55904 6.15544 10.2252 5.58584L11.0163 5.41683V4.60791V3.46512C11.0163 3.21946 11.2191 3 11.5015 3C11.7838 3 11.9866 3.21946 11.9866 3.46512V4.60791V5.41683L12.7777 5.58584C15.4439 6.15544 17.4322 8.49755 17.4322 11.2791V17.1395Z" stroke="white" stroke-width="2"/>
</svg>
