<svg width="58" height="62" viewBox="0 0 58 62" fill="none" xmlns="http://www.w3.org/2000/svg">
<path d="M20.2973 6.33962C14.5377 3.25424 9.99515 6.17791 7.02127 8.31022C6.39553 8.75889 6.08358 9.52831 6.2149 10.287L14.1865 56.3411C14.3525 57.2998 15.1843 58 16.1572 58H41.8449C42.8169 58 43.6482 57.3011 43.8151 56.3435L51.781 10.6568C51.9146 9.89065 51.597 9.10543 50.9247 8.71449C46.3006 6.02568 41.2968 6.41006 37.0343 8.94551C36.9238 9.01122 36.8062 9.06899 36.6852 9.11225C29.5011 11.68 23.3792 7.9906 20.2973 6.33962Z" fill="#2E75FF"/>
<path d="M52.2306 1H5.76943C3.28165 1 1.39733 3.24678 1.83055 5.69656L11.0263 57.6966C11.3642 59.6073 13.0248 61 14.9652 61H43.0348C44.9752 61 46.6358 59.6073 46.9737 57.6966L56.1694 5.69656C56.6027 3.24679 54.7184 1 52.2306 1Z" stroke="#3F69FF" stroke-width="2"/>
<path d="M16.5137 17.4395V26H15.1016V19.1152L13.0098 19.8242V18.6582L16.3438 17.4395H16.5137ZM25.0391 21.0195V22.4141C25.0391 23.082 24.9727 23.6523 24.8398 24.125C24.7109 24.5938 24.5234 24.9746 24.2773 25.2676C24.0312 25.5605 23.7363 25.7754 23.3926 25.9121C23.0527 26.0488 22.6719 26.1172 22.25 26.1172C21.9141 26.1172 21.6016 26.0742 21.3125 25.9883C21.0273 25.9023 20.7695 25.7676 20.5391 25.584C20.3086 25.4004 20.1113 25.1641 19.9473 24.875C19.7871 24.582 19.6621 24.2324 19.5723 23.8262C19.4863 23.4199 19.4434 22.9492 19.4434 22.4141V21.0195C19.4434 20.3477 19.5098 19.7812 19.6426 19.3203C19.7754 18.8555 19.9648 18.4785 20.2109 18.1895C20.457 17.8965 20.75 17.6836 21.0898 17.5508C21.4336 17.418 21.8164 17.3516 22.2383 17.3516C22.5781 17.3516 22.8906 17.3945 23.1758 17.4805C23.4648 17.5625 23.7227 17.6934 23.9492 17.873C24.1797 18.0527 24.375 18.2871 24.5352 18.5762C24.6992 18.8613 24.8242 19.207 24.9102 19.6133C24.9961 20.0156 25.0391 20.4844 25.0391 21.0195ZM23.627 22.6133V20.8086C23.627 20.4688 23.6074 20.1699 23.5684 19.9121C23.5293 19.6504 23.4707 19.4297 23.3926 19.25C23.3184 19.0664 23.2246 18.918 23.1113 18.8047C22.998 18.6875 22.8691 18.6035 22.7246 18.5527C22.5801 18.498 22.418 18.4707 22.2383 18.4707C22.0195 18.4707 21.8242 18.5137 21.6523 18.5996C21.4805 18.6816 21.3359 18.8145 21.2188 18.998C21.1016 19.1816 21.0117 19.4238 20.9492 19.7246C20.8906 20.0215 20.8613 20.3828 20.8613 20.8086V22.6133C20.8613 22.957 20.8809 23.2598 20.9199 23.5215C20.959 23.7832 21.0176 24.0078 21.0957 24.1953C21.1738 24.3789 21.2676 24.5312 21.377 24.6523C21.4902 24.7695 21.6191 24.8555 21.7637 24.9102C21.9121 24.9648 22.0742 24.9922 22.25 24.9922C22.4727 24.9922 22.6699 24.9492 22.8418 24.8633C23.0137 24.7773 23.1582 24.6406 23.2754 24.4531C23.3926 24.2617 23.4805 24.0137 23.5391 23.709C23.5977 23.4043 23.627 23.0391 23.627 22.6133ZM31.8594 21.0195V22.4141C31.8594 23.082 31.793 23.6523 31.6602 24.125C31.5312 24.5938 31.3438 24.9746 31.0977 25.2676C30.8516 25.5605 30.5566 25.7754 30.2129 25.9121C29.873 26.0488 29.4922 26.1172 29.0703 26.1172C28.7344 26.1172 28.4219 26.0742 28.1328 25.9883C27.8477 25.9023 27.5898 25.7676 27.3594 25.584C27.1289 25.4004 26.9316 25.1641 26.7676 24.875C26.6074 24.582 26.4824 24.2324 26.3926 23.8262C26.3066 23.4199 26.2637 22.9492 26.2637 22.4141V21.0195C26.2637 20.3477 26.3301 19.7812 26.4629 19.3203C26.5957 18.8555 26.7852 18.4785 27.0312 18.1895C27.2773 17.8965 27.5703 17.6836 27.9102 17.5508C28.2539 17.418 28.6367 17.3516 29.0586 17.3516C29.3984 17.3516 29.7109 17.3945 29.9961 17.4805C30.2852 17.5625 30.543 17.6934 30.7695 17.873C31 18.0527 31.1953 18.2871 31.3555 18.5762C31.5195 18.8613 31.6445 19.207 31.7305 19.6133C31.8164 20.0156 31.8594 20.4844 31.8594 21.0195ZM30.4473 22.6133V20.8086C30.4473 20.4688 30.4277 20.1699 30.3887 19.9121C30.3496 19.6504 30.291 19.4297 30.2129 19.25C30.1387 19.0664 30.0449 18.918 29.9316 18.8047C29.8184 18.6875 29.6895 18.6035 29.5449 18.5527C29.4004 18.498 29.2383 18.4707 29.0586 18.4707C28.8398 18.4707 28.6445 18.5137 28.4727 18.5996C28.3008 18.6816 28.1562 18.8145 28.0391 18.998C27.9219 19.1816 27.832 19.4238 27.7695 19.7246C27.7109 20.0215 27.6816 20.3828 27.6816 20.8086V22.6133C27.6816 22.957 27.7012 23.2598 27.7402 23.5215C27.7793 23.7832 27.8379 24.0078 27.916 24.1953C27.9941 24.3789 28.0879 24.5312 28.1973 24.6523C28.3105 24.7695 28.4395 24.8555 28.584 24.9102C28.7324 24.9648 28.8945 24.9922 29.0703 24.9922C29.293 24.9922 29.4902 24.9492 29.6621 24.8633C29.834 24.7773 29.9785 24.6406 30.0957 24.4531C30.2129 24.2617 30.3008 24.0137 30.3594 23.709C30.418 23.4043 30.4473 23.0391 30.4473 22.6133ZM34.6133 20.9492V26H33.2012V19.6602H34.5312L34.6133 20.9492ZM34.3848 22.5957L33.9043 22.5898C33.9043 22.1523 33.959 21.748 34.0684 21.377C34.1777 21.0059 34.3379 20.6836 34.5488 20.4102C34.7598 20.1328 35.0215 19.9199 35.334 19.7715C35.6504 19.6191 36.0156 19.543 36.4297 19.543C36.7188 19.543 36.9824 19.5859 37.2207 19.6719C37.4629 19.7539 37.6719 19.8848 37.8477 20.0645C38.0273 20.2441 38.1641 20.4746 38.2578 20.7559C38.3555 21.0371 38.4043 21.377 38.4043 21.7754V26H36.9922V21.8984C36.9922 21.5898 36.9453 21.3477 36.8516 21.1719C36.7617 20.9961 36.6309 20.8711 36.459 20.7969C36.291 20.7188 36.0898 20.6797 35.8555 20.6797C35.5898 20.6797 35.3633 20.7305 35.1758 20.832C34.9922 20.9336 34.8418 21.0723 34.7246 21.248C34.6074 21.4238 34.5215 21.627 34.4668 21.8574C34.4121 22.0879 34.3848 22.334 34.3848 22.5957ZM38.3164 22.2207L37.6543 22.3672C37.6543 21.9844 37.707 21.623 37.8125 21.2832C37.9219 20.9395 38.0801 20.6387 38.2871 20.3809C38.498 20.1191 38.7578 19.9141 39.0664 19.7656C39.375 19.6172 39.7285 19.543 40.127 19.543C40.4512 19.543 40.7402 19.5879 40.9941 19.6777C41.252 19.7637 41.4707 19.9004 41.6504 20.0879C41.8301 20.2754 41.9668 20.5195 42.0605 20.8203C42.1543 21.1172 42.2012 21.4766 42.2012 21.8984V26H40.7832V21.8926C40.7832 21.5723 40.7363 21.3242 40.6426 21.1484C40.5527 20.9727 40.4238 20.8516 40.2559 20.7852C40.0879 20.7148 39.8867 20.6797 39.6523 20.6797C39.4336 20.6797 39.2402 20.7207 39.0723 20.8027C38.9082 20.8809 38.7695 20.9922 38.6562 21.1367C38.543 21.2773 38.457 21.4395 38.3984 21.623C38.3438 21.8066 38.3164 22.0059 38.3164 22.2207ZM45.166 17V26H43.748V17H45.166Z" fill="white"/>
<path d="M34 40C34 40.3945 33.6802 40.7143 33.2857 40.7143H29.7143V44.2857C29.7143 44.6802 29.3945 45 29 45C28.6055 45 28.2857 44.6802 28.2857 44.2857V40.7143H24.7143C24.3198 40.7143 24 40.3945 24 40C24 39.6055 24.3198 39.2857 24.7143 39.2857H28.2857V35.7143C28.2857 35.3198 28.6055 35 29 35C29.3945 35 29.7143 35.3198 29.7143 35.7143V39.2857H33.2857C33.6802 39.2857 34 39.6055 34 40Z" fill="white"/>
</svg>
