<svg width="24" height="24" viewBox="0 0 24 24" fill="none" xmlns="http://www.w3.org/2000/svg">
<path fill-rule="evenodd" clip-rule="evenodd" d="M16 11C16 13.7614 13.7614 16 11 16C8.23858 16 6 13.7614 6 11C6 8.23858 8.23858 6 11 6C13.7614 6 16 8.23858 16 11ZM15.8049 16.0905C14.5512 17.2743 12.8603 18 11 18C7.13401 18 4 14.866 4 11C4 7.13401 7.13401 4 11 4C14.866 4 18 7.13401 18 11C18 12.2852 17.6537 13.4895 17.0492 14.5246L20.5122 17.3598C20.9364 17.7134 20.9938 18.3439 20.6402 18.7682C20.2866 19.1925 19.6561 19.2498 19.2318 18.8962L15.8049 16.0905Z" fill="white"/>
</svg>
