<svg width="24" height="24" viewBox="0 0 24 24" fill="none" xmlns="http://www.w3.org/2000/svg">
<path fill-rule="evenodd" clip-rule="evenodd" d="M11.325 1.1499C10.5071 1.1499 9.78627 1.687 9.55232 2.47074L9.11411 3.93875C9.10251 3.97761 9.06146 4.03756 8.96889 4.07382C8.85644 4.11786 8.74489 4.16418 8.63432 4.21275C8.54366 4.25257 8.4725 4.23954 8.43685 4.2205L7.07536 3.49349C6.3568 3.10979 5.47181 3.24125 4.89581 3.81725L3.82455 4.8885C3.24918 5.46386 3.1173 6.34761 3.49961 7.06588L4.22645 8.43143C4.24544 8.46712 4.25875 8.53958 4.21734 8.63241C4.16798 8.74306 4.12095 8.85474 4.07628 8.96737C4.03907 9.0612 3.97856 9.10222 3.94006 9.11372L2.47074 9.55232C1.687 9.78627 1.1499 10.5071 1.1499 11.325V12.8286C1.1499 13.6465 1.687 14.3674 2.47074 14.6013L3.94006 15.0399C3.97856 15.0514 4.03908 15.0925 4.07628 15.1863C4.12095 15.2989 4.16798 15.4106 4.21734 15.5212C4.25875 15.6141 4.24544 15.6865 4.22645 15.7222L3.49961 17.0878C3.1173 17.806 3.24918 18.6898 3.82455 19.2651L4.89581 20.3364C5.47181 20.9124 6.35679 21.0439 7.07536 20.6602L8.43685 19.9331C8.4725 19.9141 8.54366 19.9011 8.63431 19.9409L8.67451 19.8494L8.63432 19.9409C8.74489 19.9895 8.85643 20.0358 8.96889 20.0798C9.06146 20.1161 9.10251 20.176 9.11411 20.2149L9.55232 21.6829C9.78627 22.4666 10.5071 23.0037 11.325 23.0037H12.8367C13.6546 23.0037 14.3754 22.4667 14.6094 21.6829L15.0473 20.2159C15.0588 20.1773 15.1001 20.1163 15.1952 20.0789C15.3042 20.0359 15.4123 19.9908 15.5195 19.9434C15.6128 19.9021 15.6853 19.9156 15.7208 19.9345L17.0878 20.6621C17.8061 21.0444 18.6898 20.9125 19.2651 20.3371L20.3371 19.2651C20.9125 18.6898 21.0444 17.806 20.6621 17.0878L19.9387 15.7286C19.9195 15.6926 19.9062 15.6189 19.9492 15.5251C20.0007 15.4126 20.0499 15.299 20.0966 15.1843C20.1341 15.0921 20.1938 15.0518 20.2317 15.0404L21.6873 14.6019C22.4688 14.3665 23.0037 13.6468 23.0037 12.8305V11.325C23.0037 10.5071 22.4667 9.78627 21.6829 9.55232L20.2169 9.11471C20.1782 9.10316 20.1173 9.06174 20.0802 8.96698C20.0365 8.8552 19.9905 8.74434 19.9422 8.63449C19.9014 8.54189 19.9148 8.46988 19.9336 8.43441L20.6621 7.06587C21.0444 6.3476 20.9125 5.46386 20.3371 4.88851L19.2651 3.81652C18.6898 3.24117 17.8061 3.10929 17.0878 3.49159L15.7208 4.21917C15.6853 4.23805 15.6128 4.25154 15.5195 4.21025C15.4123 4.16287 15.3042 4.11771 15.1952 4.07478C15.1001 4.03736 15.0588 3.9763 15.0473 3.93777L14.6094 2.47074C14.3754 1.687 13.6546 1.1499 12.8367 1.1499H11.325ZM11.1813 2.957C11.2003 2.89345 11.2587 2.8499 11.325 2.8499H12.8367C12.903 2.8499 12.9614 2.89345 12.9804 2.957L13.4183 4.42403C13.5966 5.02146 14.0514 5.45145 14.5723 5.65658C14.6596 5.69095 14.7462 5.72712 14.832 5.76505C15.344 5.99142 15.9693 6.01271 16.5195 5.71984L17.8865 4.99226C17.9448 4.96126 18.0164 4.97196 18.0631 5.01861L19.135 6.09059C19.1817 6.13724 19.1924 6.20889 19.1614 6.26713L18.433 7.63567C18.141 8.18419 18.1611 8.80774 18.3861 9.31919C18.4249 9.40738 18.4619 9.49637 18.497 9.5861C18.7015 10.109 19.1322 10.5651 19.7307 10.7437L21.1967 11.1813C21.2602 11.2003 21.3037 11.2587 21.3037 11.325V12.8305C21.3037 12.8967 21.2604 12.9551 21.197 12.9742L19.7414 13.4126C19.1549 13.5893 18.7299 14.0328 18.5221 14.5432C18.4846 14.6353 18.4451 14.7265 18.4037 14.8168C18.1669 15.3336 18.1408 15.969 18.438 16.5274L19.1614 17.8865C19.1924 17.9448 19.1817 18.0164 19.135 18.0631L18.0631 19.135C18.0164 19.1817 17.9448 19.1924 17.8865 19.1614L16.5195 18.4338C15.9693 18.1409 15.344 18.1622 14.832 18.3886C14.7462 18.4265 14.6596 18.4627 14.5723 18.4971C14.0514 18.7022 13.5966 19.1322 13.4183 19.7296L12.9804 21.1966C12.9614 21.2602 12.903 21.3037 12.8367 21.3037H11.325C11.2587 21.3037 11.2003 21.2602 11.1813 21.1966L10.7431 19.7286C10.5652 19.1326 10.1117 18.7017 9.58882 18.4969C9.4978 18.4612 9.40752 18.4238 9.31803 18.3844C8.80571 18.1594 8.18278 18.1416 7.6361 18.4335L6.2746 19.1606C6.21634 19.1917 6.14459 19.181 6.09788 19.1343L5.02662 18.0631C4.97997 18.0164 4.96928 17.9448 5.00028 17.8865L5.72711 16.521C6.02072 15.9694 5.99883 15.3419 5.76987 14.8287C5.73022 14.7398 5.69244 14.6501 5.65656 14.5596C5.45067 14.0404 5.02123 13.5885 4.42632 13.411L2.957 12.9724C2.89345 12.9534 2.8499 12.8949 2.8499 12.8286V11.325C2.8499 11.2587 2.89345 11.2003 2.957 11.1813L4.42632 10.7427C5.02123 10.5651 5.45067 10.1132 5.65656 9.59406C5.69244 9.50358 5.73022 9.41386 5.76987 9.32497C5.99883 8.8117 6.02072 8.18429 5.72711 7.63268L5.00028 6.26713C4.96928 6.20889 4.97997 6.13724 5.02662 6.09059L6.09788 5.01934C6.14459 4.97264 6.21634 4.96198 6.2746 4.99309L7.6361 5.7201C8.18278 6.01202 8.80571 5.99425 9.31803 5.7692C9.40752 5.72988 9.4978 5.6924 9.58882 5.65675C10.1117 5.45198 10.5652 5.021 10.7431 4.42501L11.1813 2.957ZM12.0646 8.32422C10.0032 8.32422 8.33203 9.99536 8.33203 12.0568C8.33203 14.1183 10.0032 15.7894 12.0646 15.7894C14.1261 15.7894 15.7972 14.1183 15.7972 12.0568C15.7972 9.99536 14.1261 8.32422 12.0646 8.32422ZM10.532 12.0568C10.532 11.2104 11.2182 10.5242 12.0646 10.5242C12.9111 10.5242 13.5972 11.2104 13.5972 12.0568C13.5972 12.9032 12.9111 13.5894 12.0646 13.5894C11.2182 13.5894 10.532 12.9032 10.532 12.0568Z" fill="white"/>
</svg>
