<svg width="24" height="24" viewBox="0 0 24 24" fill="none" xmlns="http://www.w3.org/2000/svg">
<path fill-rule="evenodd" clip-rule="evenodd" d="M9.64824 2.49944C9.86954 1.75806 10.5514 1.25 11.3251 1.25H12.8368C13.6105 1.25 14.2923 1.75806 14.5136 2.49944L14.9516 3.96648C14.9727 4.03728 15.0379 4.12039 15.1586 4.16793C15.2664 4.21035 15.3732 4.25499 15.4791 4.30181C15.5978 4.35426 15.7027 4.34225 15.7679 4.30754L17.1349 3.57996C17.8143 3.21833 18.6503 3.34308 19.1945 3.88733L20.2665 4.95932C20.8108 5.50357 20.9355 6.33954 20.5739 7.01899L19.8455 8.38753C19.8108 8.45263 19.7989 8.55701 19.8507 8.67487C19.8985 8.78345 19.944 8.89302 19.9872 9.0035C20.0344 9.12409 20.1174 9.18944 20.1884 9.21063L21.6544 9.64824C22.3958 9.86955 22.9038 10.5514 22.9038 11.3251V12.8306C22.9038 13.6027 22.3978 14.2836 21.6586 14.5063L20.203 14.9447C20.1333 14.9657 20.0518 15.0293 20.004 15.1467C19.9579 15.26 19.9093 15.3724 19.8583 15.4836C19.8036 15.6029 19.8152 15.7095 19.8505 15.7757L20.5739 17.1349C20.9355 17.8143 20.8108 18.6503 20.2665 19.1945L19.1945 20.2665C18.6503 20.8108 17.8143 20.9355 17.1349 20.5739L15.7679 19.8463C15.7027 19.8116 15.5978 19.7996 15.4791 19.852C15.3732 19.8989 15.2664 19.9435 15.1586 19.9859C15.0379 20.0335 14.9727 20.1166 14.9516 20.1874L14.5136 21.6544C14.2923 22.3958 13.6105 22.9039 12.8368 22.9039H11.3251C10.5514 22.9039 9.86954 22.3958 9.64824 21.6544L9.21003 20.1864C9.18882 20.1154 9.12396 20.0332 9.00545 19.9868C8.89426 19.9433 8.78396 19.8975 8.67463 19.8494C8.55857 19.7985 8.45502 19.8102 8.38984 19.845L7.02835 20.5721C6.34863 20.935 5.51148 20.8107 4.96662 20.2658L3.89536 19.1945C3.35109 18.6503 3.22634 17.8143 3.58798 17.1349L4.31482 15.7693C4.34967 15.7038 4.36148 15.5988 4.30876 15.4806C4.25997 15.3712 4.21348 15.2608 4.16934 15.1495C4.12196 15.03 4.0394 14.9653 3.96876 14.9442L2.49944 14.5056C1.75806 14.2843 1.25 13.6024 1.25 12.8287V11.3251C1.25 10.5514 1.75806 9.86955 2.49944 9.64824L3.96876 9.20964C4.0394 9.18855 4.12196 9.12381 4.16934 9.00434C4.21348 8.89301 4.25997 8.78262 4.30876 8.67325C4.36148 8.55506 4.34967 8.45002 4.31482 8.38455L3.58798 7.019C3.22634 6.33955 3.35109 5.50357 3.89536 4.95931L4.96662 3.88806C5.51149 3.3432 6.34863 3.21884 7.02835 3.5818L8.38984 4.30881C8.45502 4.34361 8.55856 4.35539 8.67463 4.3044C8.78396 4.25638 8.89426 4.21057 9.00545 4.16703C9.12396 4.12062 9.18882 4.0385 9.21003 3.96745L9.64824 2.49944ZM11.3251 2.75C11.2146 2.75 11.1172 2.82258 11.0856 2.92849L10.6474 4.3965C10.4793 4.95959 10.0501 5.36882 9.55244 5.56374C9.46017 5.59988 9.36864 5.63788 9.27791 5.67774C8.79025 5.89196 8.19979 5.90778 7.68329 5.63199L6.3218 4.90498C6.2247 4.85313 6.10511 4.87089 6.02727 4.94873L4.95601 6.01997C4.87826 6.09773 4.86044 6.21715 4.9121 6.31422L5.63893 7.67977C5.91631 8.2009 5.89664 8.79564 5.67864 9.28433C5.63842 9.3745 5.60009 9.46551 5.5637 9.55729C5.36768 10.0516 4.95985 10.4792 4.39782 10.647L2.92849 11.0856C2.82258 11.1172 2.75 11.2146 2.75 11.3251V12.8287C2.75 12.9393 2.82258 13.0367 2.92849 13.0683L4.39781 13.5069C4.95985 13.6747 5.36768 14.1023 5.5637 14.5966C5.60009 14.6883 5.63842 14.7793 5.67864 14.8695C5.89664 15.3582 5.91631 15.953 5.63893 16.4741L4.9121 17.8396C4.86044 17.9367 4.87826 18.0561 4.95601 18.1339L6.02727 19.2051C6.10511 19.283 6.2247 19.3007 6.3218 19.2489L7.68329 18.5219C8.19979 18.2461 8.79024 18.2619 9.27791 18.4761C9.36864 18.516 9.46017 18.554 9.55244 18.5901C10.0501 18.785 10.4793 19.1943 10.6474 19.7573L11.0856 21.2254C11.1172 21.3313 11.2146 21.4039 11.3251 21.4039H12.8368C12.9473 21.4039 13.0447 21.3313 13.0763 21.2254L13.5142 19.7583C13.6827 19.1939 14.113 18.7855 14.6091 18.5902C14.6976 18.5553 14.7855 18.5187 14.8725 18.4802C15.36 18.2646 15.9528 18.2455 16.4727 18.5222L17.8396 19.2498C17.9367 19.3014 18.0561 19.2836 18.1339 19.2059L19.2058 18.1339C19.2836 18.0561 19.3014 17.9367 19.2498 17.8396L18.5264 16.4805C18.2456 15.953 18.2692 15.3506 18.4947 14.8586C18.5367 14.767 18.5768 14.6744 18.6148 14.5811C18.8126 14.0951 19.2162 13.6754 19.7704 13.5084L21.2259 13.07C21.3316 13.0382 21.4038 12.9409 21.4038 12.8306V11.3251C21.4038 11.2146 21.3313 11.1172 21.2253 11.0856L19.7594 10.648C19.194 10.4792 18.7849 10.0477 18.5902 9.54978C18.5546 9.45875 18.5171 9.36848 18.4778 9.27901C18.2635 8.79205 18.2455 8.20096 18.5213 7.68276L19.2498 6.31422C19.3014 6.21715 19.2836 6.09773 19.2058 6.01998L18.1339 4.948C18.0561 4.87024 17.9367 4.85242 17.8396 4.90409L16.4727 5.63166C15.9528 5.90835 15.36 5.88924 14.8725 5.67369C14.7855 5.6352 14.6976 5.59851 14.6091 5.56363C14.113 5.3683 13.6827 4.95994 13.5142 4.39553L13.0763 2.92849C13.0447 2.82258 12.9473 2.75 12.8368 2.75H11.3251Z" fill="#3F69FF"/>
<path fill-rule="evenodd" clip-rule="evenodd" d="M9.5046 2.45663C9.74488 1.65171 10.4852 1.1001 11.3252 1.1001H12.8368C13.6769 1.1001 14.4172 1.65171 14.6575 2.45663L15.0954 3.92367C15.1021 3.94606 15.1315 3.99609 15.2137 4.02846C15.3233 4.07163 15.4321 4.11706 15.5399 4.16472C15.6206 4.20043 15.6769 4.1862 15.6975 4.17523L17.0645 3.44765C17.8022 3.05501 18.7098 3.19046 19.3007 3.78137L20.3727 4.85335C20.9636 5.44425 21.099 6.35188 20.7064 7.08956L19.978 8.4581C19.967 8.47876 19.9529 8.53458 19.9881 8.61455C20.0367 8.72504 20.083 8.83654 20.127 8.94897C20.159 9.03081 20.2089 9.06027 20.2314 9.067L21.6974 9.50461C22.5023 9.74488 23.0539 10.4852 23.0539 11.3252V12.8307C23.0539 13.669 22.5046 14.4082 21.7019 14.65L20.2463 15.0884C20.2242 15.0951 20.1755 15.1238 20.1431 15.2034C20.0961 15.3187 20.0467 15.433 19.9948 15.5462C19.9577 15.6272 19.9718 15.6844 19.983 15.7054L20.7064 17.0645C21.099 17.8022 20.9636 18.7098 20.3727 19.3007L19.3007 20.3727C18.7098 20.9636 17.8022 21.099 17.0645 20.7064L15.6975 19.9788C15.6769 19.9678 15.6206 19.9536 15.5399 19.9893C15.4321 20.037 15.3233 20.0824 15.2137 20.1256C15.1315 20.158 15.1021 20.208 15.0954 20.2304L14.6575 21.6974C14.4172 22.5023 13.6769 23.0539 12.8369 23.0539H11.3252C10.4852 23.0539 9.74488 22.5023 9.5046 21.6974L9.06639 20.2294C9.0596 20.2066 9.03046 20.1578 8.95085 20.1266C8.83776 20.0823 8.72559 20.0357 8.6144 19.9869C8.53645 19.9526 8.48148 19.9663 8.46059 19.9775L7.0991 20.7045C6.36112 21.0985 5.45222 20.9635 4.86065 20.372L3.78939 19.3007C3.19847 18.7098 3.06302 17.8022 3.45567 17.0645L4.1825 15.6989L4.31492 15.7694L4.18251 15.6989C4.19357 15.6781 4.20762 15.622 4.17187 15.5418C4.12222 15.4305 4.07492 15.3182 4.03 15.2049C3.99788 15.1239 3.94838 15.0947 3.92596 15.088L2.45663 14.6494C1.65171 14.4092 1.1001 13.6688 1.1001 12.8288V11.3252C1.1001 10.4852 1.65171 9.74488 2.45663 9.50461L3.92596 9.066C3.94838 9.05931 3.99788 9.03014 4.03 8.94914C4.07492 8.83586 4.12222 8.72353 4.17187 8.61224C4.20762 8.53209 4.19357 8.47591 4.1825 8.45512L3.45567 7.08957C3.06302 6.35188 3.19847 5.44425 3.78939 4.85334L4.86065 3.78209C5.45222 3.19053 6.36112 3.05551 7.0991 3.44958L8.46059 4.17659C8.48148 4.18774 8.53645 4.20141 8.6144 4.16717C8.72559 4.11832 8.83776 4.07174 8.95085 4.02745C9.03046 3.99628 9.0596 3.94741 9.06639 3.92464L9.5046 2.45663ZM11.3252 1.4001C10.6178 1.4001 9.9944 1.86461 9.79207 2.54244L9.35386 4.01045C9.31824 4.12978 9.21765 4.24515 9.06025 4.3068C8.95095 4.3496 8.84253 4.39462 8.73506 4.44183C8.58088 4.50956 8.42876 4.49968 8.31929 4.44123L6.95779 3.71422C6.33633 3.38237 5.57095 3.49606 5.07278 3.99423L4.00152 5.06547C3.50391 5.56308 3.38984 6.32741 3.72049 6.94862L4.44733 8.31417C4.50597 8.42434 4.51554 8.57822 4.44585 8.73445C4.39791 8.84191 4.35224 8.95036 4.30887 9.05973C4.24624 9.21767 4.13061 9.31799 4.01177 9.35347L2.54244 9.79207C1.86461 9.99441 1.4001 10.6178 1.4001 11.3252V12.8288C1.4001 13.5362 1.86461 14.1596 2.54244 14.362L4.01177 14.8006C4.13061 14.8361 4.24624 14.9364 4.30887 15.0943C4.35224 15.2037 4.39791 15.3121 4.44585 15.4196C4.51554 15.5758 4.50597 15.7297 4.44733 15.8399L3.72049 17.2054C3.38984 17.8266 3.50391 18.591 4.00152 19.0886L5.07278 20.1598C5.57094 20.658 6.33633 20.7717 6.95779 20.4398L8.31929 19.7128C8.42876 19.6544 8.58088 19.6445 8.73506 19.7122C8.84253 19.7594 8.95095 19.8044 9.06025 19.8472C9.21765 19.9089 9.31824 20.0243 9.35386 20.1436L9.79207 21.6116C9.9944 22.2894 10.6178 22.7539 11.3252 22.7539H12.8369C13.5442 22.7539 14.1677 22.2894 14.37 21.6116L14.8079 20.1446C14.8435 20.0254 14.9445 19.9092 15.1038 19.8465C15.2096 19.8048 15.3145 19.7609 15.4186 19.715L15.4792 19.8521L15.4186 19.715C15.5751 19.6457 15.7287 19.6556 15.8385 19.714L17.2054 20.4416C17.8266 20.7722 18.591 20.6582 19.0886 20.1605L20.1605 19.0886C20.6581 18.591 20.7722 17.8266 20.4416 17.2054L19.7182 15.8463C19.6589 15.7349 19.6498 15.5788 19.7221 15.4212C19.7722 15.3119 19.8199 15.2016 19.8652 15.0903C19.9284 14.935 20.0426 14.8365 20.1598 14.8012L21.6154 14.3628C22.2913 14.1592 22.7539 13.5367 22.7539 12.8307V11.3252C22.7539 10.6178 22.2894 9.99441 21.6116 9.79207L20.1456 9.35446C20.0261 9.31879 19.9099 9.21756 19.8476 9.05822C19.8052 8.94969 19.7605 8.84205 19.7135 8.73538C19.645 8.57963 19.6548 8.4267 19.7131 8.31715L20.4416 6.94861C20.7722 6.3274 20.6581 5.56308 20.1605 5.06548L19.0886 3.9935C18.591 3.49589 17.8266 3.38183 17.2054 3.71247L15.8385 4.44005C15.7287 4.49849 15.5751 4.5083 15.4186 4.43909C15.3145 4.39311 15.2096 4.34926 15.1038 4.3076C14.9445 4.24488 14.8435 4.12869 14.8079 4.00948L14.37 2.54244C14.1677 1.86461 13.5442 1.4001 12.8368 1.4001H11.3252ZM11.3252 2.9001C11.281 2.9001 11.242 2.92913 11.2294 2.9715L10.7912 4.43951C10.6084 5.05196 10.1427 5.49381 9.60724 5.70351C9.51686 5.7389 9.42721 5.77613 9.33834 5.81517C8.81368 6.04564 8.17452 6.06438 7.61274 5.7644L6.25125 5.03739C6.2124 5.01665 6.16457 5.02376 6.13343 5.05489L5.06217 6.12614C5.03107 6.15724 5.02394 6.20501 5.04461 6.24384L5.77144 7.60939C6.07316 8.17624 6.05017 8.81997 5.81573 9.34554C5.77636 9.43379 5.73885 9.52286 5.70323 9.61269C5.49242 10.1443 5.05216 10.6083 4.44082 10.7908L2.97149 11.2294C2.92913 11.242 2.9001 11.281 2.9001 11.3252V12.8288C2.9001 12.873 2.92913 12.912 2.97149 12.9246L4.44082 13.3632C5.05216 13.5457 5.49242 14.0098 5.70323 14.5414C5.73885 14.6312 5.77636 14.7203 5.81573 14.8085C6.05017 15.3341 6.07316 15.9778 5.77144 16.5447L5.04461 17.9102C5.02394 17.949 5.03107 17.9968 5.06217 18.0279L6.13343 19.0992C6.16457 19.1303 6.21241 19.1374 6.25125 19.1167L7.61274 18.3896C8.17452 18.0897 8.81368 18.1084 9.33834 18.3389C9.4272 18.3779 9.51686 18.4151 9.60724 18.4505C10.1427 18.6602 10.6084 19.1021 10.7912 19.7145L11.2294 21.1826C11.242 21.2249 11.281 21.2539 11.3252 21.2539H12.8369C12.8811 21.2539 12.92 21.2249 12.9327 21.1826L13.3706 19.7155C13.5539 19.1016 14.0208 18.6608 14.5542 18.4507C14.6409 18.4166 14.7268 18.3807 14.812 18.3431C15.3362 18.1113 15.9778 18.0889 16.5432 18.3899L17.9102 19.1175C17.949 19.1381 17.9968 19.131 18.0279 19.0999L19.0999 18.0279C19.131 17.9968 19.1381 17.949 19.1174 17.9102L18.394 16.5511C18.0886 15.9773 18.116 15.3253 18.3585 14.7962C18.3996 14.7065 18.4388 14.616 18.476 14.5246C18.6888 14.002 19.1245 13.5465 19.7272 13.3649L21.1828 12.9265C21.225 12.9138 21.2539 12.8749 21.2539 12.8307V11.3252C21.2539 11.281 21.2249 11.242 21.1825 11.2294L19.7165 10.7918C19.1016 10.6082 18.66 10.14 18.4506 9.60451C18.4158 9.51542 18.3791 9.42708 18.3406 9.33952C18.1101 8.81583 18.089 8.17605 18.389 7.61238L19.1174 6.24384L19.2499 6.31431L19.1174 6.24383C19.1381 6.20501 19.131 6.15724 19.0999 6.12614L18.0279 5.05416L18.134 4.94809L18.0279 5.05416C17.9968 5.02306 17.949 5.01593 17.9102 5.0366L16.5432 5.76417C15.9778 6.06514 15.3362 6.04276 14.812 5.81098C14.7268 5.77332 14.6409 5.73742 14.5542 5.7033C14.0208 5.49327 13.5539 5.05247 13.3706 4.43853L12.9327 2.9715C12.92 2.92913 12.8811 2.9001 12.8368 2.9001H11.3252ZM10.9419 2.88568C10.9925 2.71623 11.1484 2.6001 11.3252 2.6001H12.8368C13.0137 2.6001 13.1696 2.71623 13.2201 2.88569L13.6581 4.35272C13.8118 4.8676 14.2054 5.24354 14.6641 5.42416C14.7546 5.45979 14.8444 5.49728 14.9333 5.5366C15.3841 5.73592 15.9281 5.75175 16.4023 5.49935L17.7692 4.77177C17.9245 4.68911 18.1156 4.71763 18.24 4.84203L19.312 5.91401C19.4364 6.03841 19.4649 6.22949 19.3823 6.38479L18.6539 7.75333C18.4022 8.22607 18.417 8.76847 18.6152 9.2187L18.4779 9.27911L18.6152 9.2187C18.6554 9.31007 18.6937 9.40228 18.73 9.49525C18.91 9.95561 19.2866 10.3504 19.8024 10.5043L21.2684 10.9419C21.4378 10.9925 21.5539 11.1484 21.5539 11.3252V12.8307C21.5539 13.0072 21.4383 13.1628 21.2693 13.2137L19.8137 13.6522C19.3082 13.8044 18.9367 14.1885 18.7538 14.6377L18.6149 14.5812L18.7538 14.6377C18.715 14.7331 18.6741 14.8276 18.6312 14.9212C18.4227 15.3762 18.4027 15.9289 18.6589 16.4101L19.3823 17.7693C19.4649 17.9246 19.4364 18.1156 19.312 18.24L18.24 19.312C18.1156 19.4364 17.9246 19.4649 17.7692 19.3823L16.4023 18.6547C15.9281 18.4023 15.3841 18.4181 14.9333 18.6174C14.8444 18.6568 14.7546 18.6943 14.6641 18.7299C14.2054 18.9105 13.8118 19.2864 13.6581 19.8013L13.2201 21.2684C13.1696 21.4378 13.0137 21.5539 12.8369 21.5539H11.3252C11.1484 21.5539 10.9925 21.4378 10.9419 21.2684L10.5037 19.8003C10.3504 19.2866 9.9578 18.91 9.49784 18.7299C9.40368 18.693 9.31027 18.6542 9.21768 18.6135C8.767 18.4156 8.22527 18.4027 7.75405 18.6543L6.39256 19.3813C6.23719 19.4643 6.04584 19.4358 5.9213 19.3113L4.85004 18.24C4.72564 18.1156 4.69712 17.9246 4.77979 17.7693L5.50662 16.4037C5.75966 15.9283 5.7433 15.3825 5.54175 14.9307C5.50067 14.8386 5.46153 14.7457 5.42436 14.652C5.24313 14.195 4.86774 13.8038 4.35501 13.6507L2.88568 13.2121C2.71622 13.1615 2.6001 13.0057 2.6001 12.8288V11.3252C2.6001 11.1484 2.71623 10.9925 2.88568 10.9419L4.35501 10.5033C4.86774 10.3503 5.24313 9.95909 5.42436 9.5021C5.46153 9.40836 5.50067 9.31541 5.54175 9.22332C5.7433 8.7715 5.75966 8.22575 5.50662 7.75034L4.77979 6.38479C4.69712 6.22949 4.72564 6.03841 4.85004 5.91401L5.9213 4.84276C6.04584 4.71822 6.23719 4.6898 6.39256 4.77276L7.75405 5.49977C8.22527 5.75139 8.767 5.73848 9.21768 5.5405C9.31027 5.49983 9.40368 5.46104 9.49784 5.42416C9.9578 5.24403 10.3504 4.86741 10.5037 4.3537L10.9419 2.88568Z" fill="#3F69FF"/>
<path fill-rule="evenodd" clip-rule="evenodd" d="M12.0647 10.4243C11.1631 10.4243 10.4321 11.1553 10.4321 12.0569C10.4321 12.9586 11.1631 13.6895 12.0647 13.6895C12.9664 13.6895 13.6973 12.9586 13.6973 12.0569C13.6973 11.1553 12.9664 10.4243 12.0647 10.4243ZM8.43213 12.0569C8.43213 10.0507 10.0585 8.42432 12.0647 8.42432C14.071 8.42432 15.6973 10.0507 15.6973 12.0569C15.6973 14.0631 14.071 15.6895 12.0647 15.6895C10.0585 15.6895 8.43213 14.0631 8.43213 12.0569Z" fill="#3F69FF"/>
<path fill-rule="evenodd" clip-rule="evenodd" d="M8.28223 12.057C8.28223 9.96794 9.97575 8.27441 12.0648 8.27441C14.1539 8.27441 15.8474 9.96794 15.8474 12.057C15.8474 14.1461 14.1539 15.8396 12.0648 15.8396C9.97575 15.8396 8.28223 14.1461 8.28223 12.057ZM12.0648 8.57441C10.1414 8.57441 8.58223 10.1336 8.58223 12.057C8.58223 13.9804 10.1414 15.5396 12.0648 15.5396C13.9882 15.5396 15.5474 13.9804 15.5474 12.057C15.5474 10.1336 13.9882 8.57441 12.0648 8.57441ZM12.0648 10.5744C11.246 10.5744 10.5822 11.2382 10.5822 12.057C10.5822 12.8758 11.246 13.5396 12.0648 13.5396C12.8836 13.5396 13.5474 12.8758 13.5474 12.057C13.5474 11.2382 12.8836 10.5744 12.0648 10.5744ZM10.2822 12.057C10.2822 11.0725 11.0803 10.2744 12.0648 10.2744C13.0493 10.2744 13.8474 11.0725 13.8474 12.057C13.8474 13.0415 13.0493 13.8396 12.0648 13.8396C11.0803 13.8396 10.2822 13.0415 10.2822 12.057Z" fill="#3F69FF"/>
</svg>
