<svg width="24" height="24" viewBox="0 0 24 24" fill="none" xmlns="http://www.w3.org/2000/svg">
<path d="M14.05 18.25C14.8 17.87 15.65 17.45 17 17.45C18.35 17.45 19.2 17.87 19.95 18.25C20.6 18.6 21.1 18.85 22 18.85V20.8C20.63 20.8 19.8 20.38 19.05 20C18.4 19.65 17.9 19.4 17 19.4C16.1318 19.4 15.6022 19.6689 14.9541 19.9979L14.95 20L14.9356 20.0073C14.1895 20.3854 13.3712 20.8 12 20.8C10.6288 20.8 9.81051 20.3854 9.0644 20.0073L9.05 20C8.4 19.65 7.88 19.4 7 19.4C6.13154 19.4 5.6137 19.663 4.9755 19.9871L4.95 20C4.2 20.38 3.35 20.8 2 20.8V18.85C2.88 18.85 3.4 18.58 4.05 18.25L4.0644 18.2427C4.81052 17.8646 5.62883 17.45 7 17.45C8.37117 17.45 9.18948 17.8646 9.9356 18.2427L9.95 18.25C10.6 18.6 11.1 18.85 12 18.85C12.8682 18.85 13.3978 18.5811 14.0459 18.2521L14.05 18.25Z" fill="#3F69FF"/>
<path d="M14.05 13.8C14.8 13.43 15.65 13 17 13C18.35 13 19.2 13.42 19.95 13.8C20.6 14.15 21.1 14.4 22 14.4V16.35C20.63 16.35 19.8 15.93 19.05 15.55C18.4 15.2 17.9 14.95 17 14.95C16.1 14.95 15.6 15.2 14.95 15.55C14.2 15.92 13.38 16.35 12 16.35C10.6288 16.35 9.81051 15.9354 9.0644 15.5573L9.05 15.55C8.4 15.2 7.9 14.95 7 14.95C6.1 14.95 5.6 15.2 4.95 15.55C4.2 15.92 3.35 16.35 2 16.35V14.4C2.88 14.4 3.4 14.12 4.05 13.8C4.8 13.43 5.62 13 7 13C8.37117 13 9.18949 13.4146 9.9356 13.7927L9.95 13.8C10.6 14.15 11.1 14.4 12 14.4C12.87 14.4 13.4 14.12 14.05 13.8Z" fill="#3F69FF"/>
<path d="M15.5 9L16.5967 6.585L19 5.5L16.5967 4.415L15.5 2L14.4267 4.415L12 5.5L14.4267 6.585L15.5 9Z" fill="#3F69FF"/>
<path d="M6.5 11L7 9L9 8.5L7 8L6.5 6L6 8L4 8.5L6 9L6.5 11Z" fill="#3F69FF"/>
</svg>
